# xmcd
#
# Track frame offsets: 
#        150
#        12606
#        24810
#        36748
#        77052
#        99975
#        122625
#        152385
#        185224
#        196836
#        229608
#        245835
#        279979
#        301812
#        326473
#
# Disc length: 4657 seconds
#
# Revision: 0
# Processed by: cddbd v1.4PL0 Copyright (c) Steve Scherf et al.
# Submitted via: ExactAudioCopy v0.90b4
#
DISCID=bd122f0f
DTITLE=Various Artist - Blue On Blues [CD2]
DYEAR=1900
DGENRE=Blues
TTITLE0=Otis Rush/It Takes Time
TTITLE1=Otis Rush/Double Trouble
TTITLE2=Otis Rush/All Your Love (I Miss Loving)
TTITLE3=Albert King/The Sky Is Crying
TTITLE4=Albert King/That's What The Blues Is All About
TTITLE5=Albert King/Rainin' In California
TTITLE6=Albert King/I'll Play The Blues For You
TTITLE7=Albert King/Stormy Monday
TTITLE8=Albert King/I Get Evil
TTITLE9=Freddie King/Mojo Boogie
TTITLE10=Freddie King/Please Accept My Love
TTITLE11=Freddie King/Het Baby
TTITLE12=Freddie King/Hide Away
TTITLE13=Freddie King/Going Down
TTITLE14=Freddie King/Rock Me baby
EXTD=
EXTT0=
EXTT1=
EXTT2=
EXTT3=
EXTT4=
EXTT5=
EXTT6=
EXTT7=
EXTT8=
EXTT9=
EXTT10=
EXTT11=
EXTT12=
EXTT13=
EXTT14=
PLAYORDER=
